<svg xmlns="http://www.w3.org/2000/svg" xmlns:xlink="http://www.w3.org/1999/xlink" xmlns:inkscape="http://www.inkscape.org/namespaces/inkscape" version="1.1" width="960" height="540" viewBox="0 0 960 540">
<defs>
<clipPath id="clip_1">
<path transform="matrix(1,0,0,-1,0,540)" d="M0 .00012207H960V540.0001H0Z" clip-rule="evenodd"/>
</clipPath>
<clipPath id="clip_2">
<path transform="matrix(1,0,0,-1,0,540)" d="M0 .00012207H960V540.0001H0Z" clip-rule="evenodd"/>
</clipPath>
<clipPath id="clip_3">
<path transform="matrix(1,0,0,-1,0,540)" d="M0 .00012207H960V540.0001H0Z" clip-rule="evenodd"/>
</clipPath>
<clipPath id="clip_4">
<path transform="matrix(1,0,0,-1,0,540)" d="M0 .00018311H960V540.0002H0Z" clip-rule="evenodd"/>
</clipPath>
<clipPath id="clip_5">
<path transform="matrix(1,0,0,-1,0,540)" d="M0 .00018311H960V540.0002H0Z" clip-rule="evenodd"/>
</clipPath>
<clipPath id="clip_6">
<path transform="matrix(1,0,0,-1,0,540)" d="M0 .00024414H960V540.00027H0Z" clip-rule="evenodd"/>
</clipPath>
<clipPath id="clip_7">
<path transform="matrix(1,0,0,-1,0,540)" d="M0 .00024414H960V540.00027H0Z" clip-rule="evenodd"/>
</clipPath>
<clipPath id="clip_8">
<path transform="matrix(1,0,0,-1,0,540)" d="M0 .00018311H960V540.0002H0Z" clip-rule="evenodd"/>
</clipPath>
<clipPath id="clip_9">
<path transform="matrix(1,0,0,-1,0,540)" d="M0 .00018311H960V540.0002H0Z" clip-rule="evenodd"/>
</clipPath>
<clipPath id="clip_10">
<path transform="matrix(1,0,0,-1,0,540)" d="M0 .00024414H960V540.00027H0Z" clip-rule="evenodd"/>
</clipPath>
<clipPath id="clip_11">
<path transform="matrix(1,0,0,-1,0,540)" d="M0 .00024414H960V540.00027H0Z" clip-rule="evenodd"/>
</clipPath>
<clipPath id="clip_12">
<path transform="matrix(1,0,0,-1,0,540)" d="M0 .00012207H960V540.0001H0Z" clip-rule="evenodd"/>
</clipPath>
<clipPath id="clip_13">
<path transform="matrix(1,0,0,-1,0,540)" d="M0 .00012207H960V540.0001H0Z" clip-rule="evenodd"/>
</clipPath>
<clipPath id="clip_14">
<path transform="matrix(1,0,0,-1,0,540)" d="M0 .00012207H960V540.0001H0Z" clip-rule="evenodd"/>
</clipPath>
<clipPath id="clip_15">
<path transform="matrix(1,0,0,-1,0,540)" d="M0 .00012207H960V540.0001H0Z" clip-rule="evenodd"/>
</clipPath>
<clipPath id="clip_16">
<path transform="matrix(1,0,0,-1,0,540)" d="M0 .00024414H960V540.00027H0Z" clip-rule="evenodd"/>
</clipPath>
<clipPath id="clip_17">
<path transform="matrix(1,0,0,-1,0,540)" d="M0 .00024414H960V540.00027H0Z" clip-rule="evenodd"/>
</clipPath>
</defs>
<g>
<g clip-path="url(#clip_1)">
<path transform="matrix(1,0,0,-1,0,540)" d="M0 .000061035H960V540.00009H0Z" fill="#ffffff" fill-rule="evenodd"/>
</g>
<g clip-path="url(#clip_2)">
<path transform="matrix(1,0,0,-1,0,540)" d="M0 .000061035H960V540.00009H0Z" fill="#071525" fill-rule="evenodd"/>
</g>
<g clip-path="url(#clip_3)">
<path transform="matrix(1,0,0,-1,0,540)" stroke-width="1.5" stroke-linecap="butt" stroke-miterlimit="10" stroke-linejoin="miter" fill="none" stroke="#042433" d="M0 .000061035H960V540.00009H0Z"/>
</g>
<g clip-path="url(#clip_4)">
<path transform="matrix(1,0,0,-1,0,540)" d="M4 527.87C4 532.8 7.9997 536.8 12.934 536.8H946.27C951.2 536.8 955.2 532.8 955.2 527.87V492.13C955.2 487.2 951.2 483.2 946.27 483.2H12.934C7.9997 483.2 4 487.2 4 492.13Z" fill="#122b47" fill-rule="evenodd"/>
</g>
<g clip-path="url(#clip_5)">
<path transform="matrix(1,0,0,-1,0,540)" stroke-width="1.5" stroke-linecap="butt" stroke-miterlimit="10" stroke-linejoin="miter" fill="none" stroke="#2e4f70" d="M4 527.87C4 532.8 7.9997 536.8 12.934 536.8H946.27C951.2 536.8 955.2 532.8 955.2 527.87V492.13C955.2 487.2 951.2 483.2 946.27 483.2H12.934C7.9997 483.2 4 487.2 4 492.13Z"/>
</g>
<g clip-path="url(#clip_6)">
<path transform="matrix(1,0,0,-1,0,540)" d="M4.8 306.41C4.8 314.41 11.29 320.9 19.295 320.9H520.71C528.71 320.9 535.2 314.41 535.2 306.41V131.85C535.2 123.84 528.71 117.35 520.71 117.35H19.295C11.29 117.35 4.8 123.84 4.8 131.85Z" fill="#122b47" fill-rule="evenodd"/>
</g>
<g clip-path="url(#clip_7)">
<path transform="matrix(1,0,0,-1,0,540)" stroke-width="1.5" stroke-linecap="butt" stroke-miterlimit="10" stroke-linejoin="miter" fill="none" stroke="#2e4f70" d="M4.8 306.41C4.8 314.41 11.29 320.9 19.295 320.9H520.71C528.71 320.9 535.2 314.41 535.2 306.41V131.85C535.2 123.84 528.71 117.35 520.71 117.35H19.295C11.29 117.35 4.8 123.84 4.8 131.85Z"/>
</g>
<g clip-path="url(#clip_8)">
<path transform="matrix(1,0,0,-1,0,540)" d="M540 466.63C540 471.64 544.06 475.7 549.07 475.7H946.13C951.14 475.7 955.2 471.64 955.2 466.63V14.418C955.2 9.41 951.14 5.3501 946.13 5.3501H549.07C544.06 5.3501 540 9.41 540 14.418Z" fill="#122b47" fill-rule="evenodd"/>
</g>
<g clip-path="url(#clip_9)">
<path transform="matrix(1,0,0,-1,0,540)" stroke-width="1.5" stroke-linecap="butt" stroke-miterlimit="10" stroke-linejoin="miter" fill="none" stroke="#2e4f70" d="M540 466.63C540 471.64 544.06 475.7 549.07 475.7H946.13C951.14 475.7 955.2 471.64 955.2 466.63V14.418C955.2 9.41 951.14 5.3501 946.13 5.3501H549.07C544.06 5.3501 540 9.41 540 14.418Z"/>
</g>
<g clip-path="url(#clip_10)">
<path transform="matrix(1,0,0,-1,0,540)" d="M4.8 466.89C4.8 472.5 9.3502 477.05 14.963 477.05H188.24C193.85 477.05 198.4 472.5 198.4 466.89V412.16C198.4 406.55 193.85 402 188.24 402H14.963C9.3502 402 4.8 406.55 4.8 412.16Z" fill="#122b47" fill-rule="evenodd"/>
</g>
<g clip-path="url(#clip_11)">
<path transform="matrix(1,0,0,-1,0,540)" stroke-width="1.5" stroke-linecap="butt" stroke-miterlimit="10" stroke-linejoin="miter" fill="none" stroke="#2e4f70" d="M4.8 466.89C4.8 472.5 9.3502 477.05 14.963 477.05H188.24C193.85 477.05 198.4 472.5 198.4 466.89V412.16C198.4 406.55 193.85 402 188.24 402H14.963C9.3502 402 4.8 406.55 4.8 412.16Z"/>
</g>
<g clip-path="url(#clip_12)">
<path transform="matrix(1,0,0,-1,0,540)" d="M4.8 386.53C4.8 391.68 8.9713 395.85 14.117 395.85H189.08C194.23 395.85 198.4 391.68 198.4 386.53V336.37C198.4 331.22 194.23 327.05 189.08 327.05H14.117C8.9713 327.05 4.8 331.22 4.8 336.37Z" fill="#122b47" fill-rule="evenodd"/>
</g>
<g clip-path="url(#clip_13)">
<path transform="matrix(1,0,0,-1,0,540)" stroke-width="1.5" stroke-linecap="butt" stroke-miterlimit="10" stroke-linejoin="miter" fill="none" stroke="#2e4f70" d="M4.8 386.53C4.8 391.68 8.9713 395.85 14.117 395.85H189.08C194.23 395.85 198.4 391.68 198.4 386.53V336.37C198.4 331.22 194.23 327.05 189.08 327.05H14.117C8.9713 327.05 4.8 331.22 4.8 336.37Z"/>
</g>
<g clip-path="url(#clip_14)">
<path transform="matrix(1,0,0,-1,0,540)" d="M4.8 104.41C4.8 108.6 8.2002 112 12.395 112H527.61C531.8 112 535.2 108.6 535.2 104.41V12.945C535.2 8.7504 531.8 5.3501 527.61 5.3501H12.395C8.2002 5.3501 4.8 8.7504 4.8 12.945Z" fill="#122b47" fill-rule="evenodd"/>
</g>
<g clip-path="url(#clip_15)">
<path transform="matrix(1,0,0,-1,0,540)" stroke-width="1.5" stroke-linecap="butt" stroke-miterlimit="10" stroke-linejoin="miter" fill="none" stroke="#2e4f70" d="M4.8 104.41C4.8 108.6 8.2002 112 12.395 112H527.61C531.8 112 535.2 108.6 535.2 104.41V12.945C535.2 8.7504 531.8 5.3501 527.61 5.3501H12.395C8.2002 5.3501 4.8 8.7504 4.8 12.945Z"/>
</g>
<g clip-path="url(#clip_16)">
<path transform="matrix(1,0,0,-1,0,540)" d="M202.4 467.25C202.4 472.66 206.79 477.05 212.2 477.05H525.4C530.81 477.05 535.2 472.66 535.2 467.25V336.85C535.2 331.44 530.81 327.05 525.4 327.05H212.2C206.79 327.05 202.4 331.44 202.4 336.85Z" fill="#122b47" fill-rule="evenodd"/>
</g>
<g clip-path="url(#clip_17)">
<path transform="matrix(1,0,0,-1,0,540)" stroke-width="1.5" stroke-linecap="butt" stroke-miterlimit="10" stroke-linejoin="miter" fill="none" stroke="#2e4f70" d="M202.4 467.25C202.4 472.66 206.79 477.05 212.2 477.05H525.4C530.81 477.05 535.2 472.66 535.2 467.25V336.85C535.2 331.44 530.81 327.05 525.4 327.05H212.2C206.79 327.05 202.4 331.44 202.4 336.85Z"/>
</g>
</g>
</svg>
