<svg xmlns="http://www.w3.org/2000/svg" xmlns:xlink="http://www.w3.org/1999/xlink" xmlns:inkscape="http://www.inkscape.org/namespaces/inkscape" version="1.1" width="960" height="540" viewBox="0 0 960 540">
<defs>
<clipPath id="clip_1">
<path transform="matrix(1,0,0,-1,0,540)" d="M0 .00012207H960V540.0001H0Z" clip-rule="evenodd"/>
</clipPath>
<clipPath id="clip_2">
<path transform="matrix(1,0,0,-1,0,540)" d="M0 .00012207H960V540.0001H0Z" clip-rule="evenodd"/>
</clipPath>
<clipPath id="clip_3">
<path transform="matrix(1,0,0,-1,0,540)" d="M0 .00012207H960V540.0001H0Z" clip-rule="evenodd"/>
</clipPath>
<clipPath id="clip_4">
<path transform="matrix(1,0,0,-1,0,540)" d="M0 .00018311H960V540.0002H0Z" clip-rule="evenodd"/>
</clipPath>
<clipPath id="clip_5">
<path transform="matrix(1,0,0,-1,0,540)" d="M0 .00018311H960V540.0002H0Z" clip-rule="evenodd"/>
</clipPath>
<clipPath id="clip_6">
<path transform="matrix(1,0,0,-1,0,540)" d="M0 .00018311H960V540.0002H0Z" clip-rule="evenodd"/>
</clipPath>
<clipPath id="clip_7">
<path transform="matrix(1,0,0,-1,0,540)" d="M0 .00018311H960V540.0002H0Z" clip-rule="evenodd"/>
</clipPath>
<clipPath id="clip_8">
<path transform="matrix(1,0,0,-1,0,540)" d="M0 .00018311H960V540.0002H0Z" clip-rule="evenodd"/>
</clipPath>
<clipPath id="clip_9">
<path transform="matrix(1,0,0,-1,0,540)" d="M0 .00018311H960V540.0002H0Z" clip-rule="evenodd"/>
</clipPath>
<clipPath id="clip_10">
<path transform="matrix(1,0,0,-1,0,540)" d="M0 .00024414H960V540.00027H0Z" clip-rule="evenodd"/>
</clipPath>
<clipPath id="clip_11">
<path transform="matrix(1,0,0,-1,0,540)" d="M0 .00024414H960V540.00027H0Z" clip-rule="evenodd"/>
</clipPath>
<clipPath id="clip_12">
<path transform="matrix(1,0,0,-1,0,540)" d="M0 .00012207H960V540.0001H0Z" clip-rule="evenodd"/>
</clipPath>
<clipPath id="clip_13">
<path transform="matrix(1,0,0,-1,0,540)" d="M0 .00012207H960V540.0001H0Z" clip-rule="evenodd"/>
</clipPath>
<clipPath id="clip_14">
<path transform="matrix(1,0,0,-1,0,540)" d="M0 .00012207H960V540.0001H0Z" clip-rule="evenodd"/>
</clipPath>
<clipPath id="clip_15">
<path transform="matrix(1,0,0,-1,0,540)" d="M0 .00012207H960V540.0001H0Z" clip-rule="evenodd"/>
</clipPath>
<clipPath id="clip_16">
<path transform="matrix(1,0,0,-1,0,540)" d="M0 .00024414H960V540.00027H0Z" clip-rule="evenodd"/>
</clipPath>
<clipPath id="clip_17">
<path transform="matrix(1,0,0,-1,0,540)" d="M0 .00024414H960V540.00027H0Z" clip-rule="evenodd"/>
</clipPath>
</defs>
<g>
<g clip-path="url(#clip_1)">
<path transform="matrix(1,0,0,-1,0,540)" d="M0 .000061035H960V540.00009H0Z" fill="#ffffff" fill-rule="evenodd"/>
</g>
<g clip-path="url(#clip_2)">
<path transform="matrix(1,0,0,-1,0,540)" d="M0 .000061035H960V540.00009H0Z" fill="#071525" fill-rule="evenodd"/>
</g>
<g clip-path="url(#clip_3)">
<path transform="matrix(1,0,0,-1,0,540)" stroke-width="1.5" stroke-linecap="butt" stroke-miterlimit="10" stroke-linejoin="miter" fill="none" stroke="#042433" d="M0 .000061035H960V540.00009H0Z"/>
</g>
<g clip-path="url(#clip_4)">
<path transform="matrix(1,0,0,-1,0,540)" d="M4 527.87C4 532.8 7.9997 536.8 12.934 536.8H946.27C951.2 536.8 955.2 532.8 955.2 527.87V492.13C955.2 487.2 951.2 483.2 946.27 483.2H12.934C7.9997 483.2 4 487.2 4 492.13Z" fill="#122b47" fill-rule="evenodd"/>
</g>
<g clip-path="url(#clip_5)">
<path transform="matrix(1,0,0,-1,0,540)" stroke-width="1.5" stroke-linecap="butt" stroke-miterlimit="10" stroke-linejoin="miter" fill="none" stroke="#2e4f70" d="M4 527.87C4 532.8 7.9997 536.8 12.934 536.8H946.27C951.2 536.8 955.2 532.8 955.2 527.87V492.13C955.2 487.2 951.2 483.2 946.27 483.2H12.934C7.9997 483.2 4 487.2 4 492.13Z"/>
</g>
<g clip-path="url(#clip_6)">
<path transform="matrix(1,0,0,-1,0,540)" d="M4.8 310.77C4.8 316.37 9.3336 320.9 14.926 320.9H525.07C530.67 320.9 535.2 316.37 535.2 310.77V188.83C535.2 183.23 530.67 178.7 525.07 178.7H14.926C9.3336 178.7 4.8 183.23 4.8 188.83Z" fill="#122b47" fill-rule="evenodd"/>
</g>
<g clip-path="url(#clip_7)">
<path transform="matrix(1,0,0,-1,0,540)" stroke-width="1.5" stroke-linecap="butt" stroke-miterlimit="10" stroke-linejoin="miter" fill="none" stroke="#2e4f70" d="M4.8 310.77C4.8 316.37 9.3336 320.9 14.926 320.9H525.07C530.67 320.9 535.2 316.37 535.2 310.77V188.83C535.2 183.23 530.67 178.7 525.07 178.7H14.926C9.3336 178.7 4.8 183.23 4.8 188.83Z"/>
</g>
<g clip-path="url(#clip_8)">
<path transform="matrix(1,0,0,-1,0,540)" d="M540 466.63C540 471.64 544.06 475.7 549.07 475.7H946.13C951.14 475.7 955.2 471.64 955.2 466.63V14.418C955.2 9.41 951.14 5.3501 946.13 5.3501H549.07C544.06 5.3501 540 9.41 540 14.418Z" fill="#122b47" fill-rule="evenodd"/>
</g>
<g clip-path="url(#clip_9)">
<path transform="matrix(1,0,0,-1,0,540)" stroke-width="1.5" stroke-linecap="butt" stroke-miterlimit="10" stroke-linejoin="miter" fill="none" stroke="#2e4f70" d="M540 466.63C540 471.64 544.06 475.7 549.07 475.7H946.13C951.14 475.7 955.2 471.64 955.2 466.63V14.418C955.2 9.41 951.14 5.3501 946.13 5.3501H549.07C544.06 5.3501 540 9.41 540 14.418Z"/>
</g>
<g clip-path="url(#clip_10)">
<path transform="matrix(1,0,0,-1,0,540)" d="M4.8 466.89C4.8 472.5 9.3502 477.05 14.963 477.05H188.24C193.85 477.05 198.4 472.5 198.4 466.89V412.16C198.4 406.55 193.85 402 188.24 402H14.963C9.3502 402 4.8 406.55 4.8 412.16Z" fill="#122b47" fill-rule="evenodd"/>
</g>
<g clip-path="url(#clip_11)">
<path transform="matrix(1,0,0,-1,0,540)" stroke-width="1.5" stroke-linecap="butt" stroke-miterlimit="10" stroke-linejoin="miter" fill="none" stroke="#2e4f70" d="M4.8 466.89C4.8 472.5 9.3502 477.05 14.963 477.05H188.24C193.85 477.05 198.4 472.5 198.4 466.89V412.16C198.4 406.55 193.85 402 188.24 402H14.963C9.3502 402 4.8 406.55 4.8 412.16Z"/>
</g>
<g clip-path="url(#clip_12)">
<path transform="matrix(1,0,0,-1,0,540)" d="M4.8 386.53C4.8 391.68 8.9713 395.85 14.117 395.85H189.08C194.23 395.85 198.4 391.68 198.4 386.53V336.37C198.4 331.22 194.23 327.05 189.08 327.05H14.117C8.9713 327.05 4.8 331.22 4.8 336.37Z" fill="#122b47" fill-rule="evenodd"/>
</g>
<g clip-path="url(#clip_13)">
<path transform="matrix(1,0,0,-1,0,540)" stroke-width="1.5" stroke-linecap="butt" stroke-miterlimit="10" stroke-linejoin="miter" fill="none" stroke="#2e4f70" d="M4.8 386.53C4.8 391.68 8.9713 395.85 14.117 395.85H189.08C194.23 395.85 198.4 391.68 198.4 386.53V336.37C198.4 331.22 194.23 327.05 189.08 327.05H14.117C8.9713 327.05 4.8 331.22 4.8 336.37Z"/>
</g>
<g clip-path="url(#clip_14)">
<path transform="matrix(1,0,0,-1,0,540)" d="M4.8 160.64C4.8 167.22 10.131 172.55 16.706 172.55H523.29C529.87 172.55 535.2 167.22 535.2 160.64V17.256C535.2 10.681 529.87 5.35 523.29 5.35H16.706C10.131 5.35 4.8 10.681 4.8 17.256Z" fill="#122b47" fill-rule="evenodd"/>
</g>
<g clip-path="url(#clip_15)">
<path transform="matrix(1,0,0,-1,0,540)" stroke-width="1.5" stroke-linecap="butt" stroke-miterlimit="10" stroke-linejoin="miter" fill="none" stroke="#2e4f70" d="M4.8 160.64C4.8 167.22 10.131 172.55 16.706 172.55H523.29C529.87 172.55 535.2 167.22 535.2 160.64V17.256C535.2 10.681 529.87 5.35 523.29 5.35H16.706C10.131 5.35 4.8 10.681 4.8 17.256Z"/>
</g>
<g clip-path="url(#clip_16)">
<path transform="matrix(1,0,0,-1,0,540)" d="M202.4 467.25C202.4 472.66 206.79 477.05 212.2 477.05H525.4C530.81 477.05 535.2 472.66 535.2 467.25V336.85C535.2 331.44 530.81 327.05 525.4 327.05H212.2C206.79 327.05 202.4 331.44 202.4 336.85Z" fill="#122b47" fill-rule="evenodd"/>
</g>
<g clip-path="url(#clip_17)">
<path transform="matrix(1,0,0,-1,0,540)" stroke-width="1.5" stroke-linecap="butt" stroke-miterlimit="10" stroke-linejoin="miter" fill="none" stroke="#2e4f70" d="M202.4 467.25C202.4 472.66 206.79 477.05 212.2 477.05H525.4C530.81 477.05 535.2 472.66 535.2 467.25V336.85C535.2 331.44 530.81 327.05 525.4 327.05H212.2C206.79 327.05 202.4 331.44 202.4 336.85Z"/>
</g>
</g>
</svg>
