<svg xmlns="http://www.w3.org/2000/svg" xmlns:xlink="http://www.w3.org/1999/xlink" xmlns:inkscape="http://www.inkscape.org/namespaces/inkscape" version="1.1" width="960" height="540" viewBox="0 0 960 540">
<defs>
<clipPath id="clip_1">
<path transform="matrix(1,0,0,-1,0,540)" d="M0 .00012207H960V540.0001H0Z" clip-rule="evenodd"/>
</clipPath>
<clipPath id="clip_2">
<path transform="matrix(1,0,0,-1,0,540)" d="M0 .00012207H960V540.0001H0Z" clip-rule="evenodd"/>
</clipPath>
<clipPath id="clip_3">
<path transform="matrix(1,0,0,-1,0,540)" d="M0 .00012207H960V540.0001H0Z" clip-rule="evenodd"/>
</clipPath>
<clipPath id="clip_4">
<path transform="matrix(1,0,0,-1,0,540)" d="M0 .00018311H960V540.0002H0Z" clip-rule="evenodd"/>
</clipPath>
<clipPath id="clip_5">
<path transform="matrix(1,0,0,-1,0,540)" d="M0 .00018311H960V540.0002H0Z" clip-rule="evenodd"/>
</clipPath>
<clipPath id="clip_6">
<path transform="matrix(1,0,0,-1,0,540)" d="M0 .00030518H960V540.0003H0Z" clip-rule="evenodd"/>
</clipPath>
<clipPath id="clip_7">
<path transform="matrix(1,0,0,-1,0,540)" d="M0 .00030518H960V540.0003H0Z" clip-rule="evenodd"/>
</clipPath>
<clipPath id="clip_8">
<path transform="matrix(1,0,0,-1,0,540)" d="M0 .00024414H960V540.00027H0Z" clip-rule="evenodd"/>
</clipPath>
<clipPath id="clip_9">
<path transform="matrix(1,0,0,-1,0,540)" d="M0 .00024414H960V540.00027H0Z" clip-rule="evenodd"/>
</clipPath>
<clipPath id="clip_10">
<path transform="matrix(1,0,0,-1,0,540)" d="M0 .00030518H960V540.0003H0Z" clip-rule="evenodd"/>
</clipPath>
<clipPath id="clip_11">
<path transform="matrix(1,0,0,-1,0,540)" d="M0 .00030518H960V540.0003H0Z" clip-rule="evenodd"/>
</clipPath>
<clipPath id="clip_12">
<path transform="matrix(1,0,0,-1,0,540)" d="M-.000015259 .00024414H960V540.00027H-.000015259Z" clip-rule="evenodd"/>
</clipPath>
<clipPath id="clip_13">
<path transform="matrix(1,0,0,-1,0,540)" d="M-.000015259 .00024414H960V540.00027H-.000015259Z" clip-rule="evenodd"/>
</clipPath>
<clipPath id="clip_14">
<path transform="matrix(1,0,0,-1,0,540)" d="M0 .00030518H960V540.0003H0Z" clip-rule="evenodd"/>
</clipPath>
<clipPath id="clip_15">
<path transform="matrix(1,0,0,-1,0,540)" d="M0 .00030518H960V540.0003H0Z" clip-rule="evenodd"/>
</clipPath>
<clipPath id="clip_16">
<path transform="matrix(1,0,0,-1,0,540)" d="M0 .00024414H960V540.00027H0Z" clip-rule="evenodd"/>
</clipPath>
<clipPath id="clip_17">
<path transform="matrix(1,0,0,-1,0,540)" d="M0 .00024414H960V540.00027H0Z" clip-rule="evenodd"/>
</clipPath>
</defs>
<g>
<g clip-path="url(#clip_1)">
<path transform="matrix(1,0,0,-1,0,540)" d="M0 .000061035H960V540.00009H0Z" fill="#ffffff" fill-rule="evenodd"/>
</g>
<g clip-path="url(#clip_2)">
<path transform="matrix(1,0,0,-1,0,540)" d="M0 .000061035H960V540.00009H0Z" fill="#071525" fill-rule="evenodd"/>
</g>
<g clip-path="url(#clip_3)">
<path transform="matrix(1,0,0,-1,0,540)" stroke-width="1.5" stroke-linecap="butt" stroke-miterlimit="10" stroke-linejoin="miter" fill="none" stroke="#042433" d="M0 .000061035H960V540.00009H0Z"/>
</g>
<g clip-path="url(#clip_4)">
<path transform="matrix(1,0,0,-1,0,540)" d="M4 527.87C4 532.8 7.9997 536.8 12.934 536.8H946.27C951.2 536.8 955.2 532.8 955.2 527.87V492.13C955.2 487.2 951.2 483.2 946.27 483.2H12.934C7.9997 483.2 4 487.2 4 492.13Z" fill="#122b47" fill-rule="evenodd"/>
</g>
<g clip-path="url(#clip_5)">
<path transform="matrix(1,0,0,-1,0,540)" stroke-width="1.5" stroke-linecap="butt" stroke-miterlimit="10" stroke-linejoin="miter" fill="none" stroke="#2e4f70" d="M4 527.87C4 532.8 7.9997 536.8 12.934 536.8H946.27C951.2 536.8 955.2 532.8 955.2 527.87V492.13C955.2 487.2 951.2 483.2 946.27 483.2H12.934C7.9997 483.2 4 487.2 4 492.13Z"/>
</g>
<g clip-path="url(#clip_6)">
<path transform="matrix(1,0,0,-1,0,540)" d="M484.8 387.32C484.8 392.03 488.62 395.85 493.33 395.85H946.67C951.38 395.85 955.2 392.03 955.2 387.32V13.878C955.2 9.1684 951.38 5.3501 946.67 5.3501H493.33C488.62 5.3501 484.8 9.1684 484.8 13.878Z" fill="#122b47" fill-rule="evenodd"/>
</g>
<g clip-path="url(#clip_7)">
<path transform="matrix(1,0,0,-1,0,540)" stroke-width="1.5" stroke-linecap="butt" stroke-miterlimit="10" stroke-linejoin="miter" fill="none" stroke="#2e4f70" d="M484.8 387.32C484.8 392.03 488.62 395.85 493.33 395.85H946.67C951.38 395.85 955.2 392.03 955.2 387.32V13.878C955.2 9.1684 951.38 5.3501 946.67 5.3501H493.33C488.62 5.3501 484.8 9.1684 484.8 13.878Z"/>
</g>
<g clip-path="url(#clip_8)">
<path transform="matrix(1,0,0,-1,0,540)" d="M4.8 468.05C4.8 473.91 9.5442 478.65 15.397 478.65H232.2C238.06 478.65 242.8 473.91 242.8 468.05V411C242.8 405.14 238.06 400.4 232.2 400.4H15.397C9.5442 400.4 4.8 405.14 4.8 411Z" fill="#122b47" fill-rule="evenodd"/>
</g>
<g clip-path="url(#clip_9)">
<path transform="matrix(1,0,0,-1,0,540)" stroke-width="1.5" stroke-linecap="butt" stroke-miterlimit="10" stroke-linejoin="miter" fill="none" stroke="#2e4f70" d="M4.8 468.05C4.8 473.91 9.5442 478.65 15.397 478.65H232.2C238.06 478.65 242.8 473.91 242.8 468.05V411C242.8 405.14 238.06 400.4 232.2 400.4H15.397C9.5442 400.4 4.8 405.14 4.8 411Z"/>
</g>
<g clip-path="url(#clip_10)">
<path transform="matrix(1,0,0,-1,0,540)" d="M4.8 386.44C4.8 391.64 9.0118 395.85 14.207 395.85H470.59C475.79 395.85 480 391.64 480 386.44V14.757C480 9.562 475.79 5.3501 470.59 5.3501H14.207C9.0118 5.3501 4.8 9.562 4.8 14.757Z" fill="#122b47" fill-rule="evenodd"/>
</g>
<g clip-path="url(#clip_11)">
<path transform="matrix(1,0,0,-1,0,540)" stroke-width="1.5" stroke-linecap="butt" stroke-miterlimit="10" stroke-linejoin="miter" fill="none" stroke="#2e4f70" d="M4.8 386.44C4.8 391.64 9.0118 395.85 14.207 395.85H470.59C475.79 395.85 480 391.64 480 386.44V14.757C480 9.562 475.79 5.3501 470.59 5.3501H14.207C9.0118 5.3501 4.8 9.562 4.8 14.757Z"/>
</g>
<g clip-path="url(#clip_12)">
<path transform="matrix(1,0,0,-1,0,540)" d="M248 469.65C248 475.06 252.39 479.45 257.8 479.45H469C474.41 479.45 478.8 475.06 478.8 469.65V411C478.8 405.59 474.41 401.2 469 401.2H257.8C252.39 401.2 248 405.59 248 411Z" fill="#122b47" fill-rule="evenodd"/>
</g>
<g clip-path="url(#clip_13)">
<path transform="matrix(1,0,0,-1,0,540)" stroke-width="1.5" stroke-linecap="butt" stroke-miterlimit="10" stroke-linejoin="miter" fill="none" stroke="#2e4f70" d="M248 469.65C248 475.06 252.39 479.45 257.8 479.45H469C474.41 479.45 478.8 475.06 478.8 469.65V411C478.8 405.59 474.41 401.2 469 401.2H257.8C252.39 401.2 248 405.59 248 411Z"/>
</g>
<g clip-path="url(#clip_14)">
<path transform="matrix(1,0,0,-1,0,540)" d="M721.2 469.4C721.2 475.26 725.94 480 731.8 480H944.6C950.46 480 955.2 475.26 955.2 469.4V412.35C955.2 406.49 950.46 401.75 944.6 401.75H731.8C725.94 401.75 721.2 406.49 721.2 412.35Z" fill="#122b47" fill-rule="evenodd"/>
</g>
<g clip-path="url(#clip_15)">
<path transform="matrix(1,0,0,-1,0,540)" stroke-width="1.5" stroke-linecap="butt" stroke-miterlimit="10" stroke-linejoin="miter" fill="none" stroke="#2e4f70" d="M721.2 469.4C721.2 475.26 725.94 480 731.8 480H944.6C950.46 480 955.2 475.26 955.2 469.4V412.35C955.2 406.49 950.46 401.75 944.6 401.75H731.8C725.94 401.75 721.2 406.49 721.2 412.35Z"/>
</g>
<g clip-path="url(#clip_16)">
<path transform="matrix(1,0,0,-1,0,540)" d="M485 468.85C485 474.71 489.74 479.45 495.6 479.45H705.2C711.06 479.45 715.8 474.71 715.8 468.85V411.8C715.8 405.94 711.06 401.2 705.2 401.2H495.6C489.74 401.2 485 405.94 485 411.8Z" fill="#122b47" fill-rule="evenodd"/>
</g>
<g clip-path="url(#clip_17)">
<path transform="matrix(1,0,0,-1,0,540)" stroke-width="1.5" stroke-linecap="butt" stroke-miterlimit="10" stroke-linejoin="miter" fill="none" stroke="#2e4f70" d="M485 468.85C485 474.71 489.74 479.45 495.6 479.45H705.2C711.06 479.45 715.8 474.71 715.8 468.85V411.8C715.8 405.94 711.06 401.2 705.2 401.2H495.6C489.74 401.2 485 405.94 485 411.8Z"/>
</g>
</g>
</svg>
